# xmcd CD database file
#
# Track frame offsets:
#	150
#	11276
#	27511
#	38672
#	53601
#	67405
#	80845
#	97899
#	113135
#	127100
#	141776
#	151103
#	163224
#	175085
#	192226
#	207858
#	225277
#	240255
#
# Disc length: 3496 seconds
#
# Revision: 1
# Processed by: cddbd v1.5.2PL0 Copyright (c) Steve Scherf et al.
# Submitted via: NeoAudio 9.9.9
#
DISCID=e50da612
DTITLE=hans country nr 15 - hans countryy nr 15
DYEAR=2006
DGENRE=Country
TTITLE0=Really cool
TTITLE1=Walkin Angel
TTITLE2=Don't make me laugh
TTITLE3=Sidewinder swing 1
TTITLE4=bosa nova 1
TTITLE5=Shaping up 1
TTITLE6=Indian summers with you 
TTITLE7=i can't be botherend 1
TTITLE8=lila flamenco
TTITLE9=Bicycle waltz
TTITLE10=naughty but nice 1
TTITLE11=mambo rock 1
TTITLE12=oklahoma dust 1
TTITLE13=i never work on a sunday
TTITLE14=be strong 1
TTITLE15=no place to go
TTITLE16=12th of never
TTITLE17=over the rainbow
EXTD=YEAR: 2006
EXTT0=
EXTT1=
EXTT2=
EXTT3=
EXTT4=
EXTT5=
EXTT6=
EXTT7=
EXTT8=
EXTT9=
EXTT10=
EXTT11=
EXTT12=
EXTT13=
EXTT14=
EXTT15=
EXTT16=
EXTT17=
PLAYORDER=
